<!DOCTYPE svg PUBLIC "-//W3C//DTD SVG 20010904//EN" "http://www.w3.org/TR/2001/REC-SVG-20010904/DTD/svg10.dtd">
<svg version="1.0" xmlns="http://www.w3.org/2000/svg" width="158px" height="93px" viewBox="0 0 1580 930" preserveAspectRatio="xMidYMid meet">
<g id="layer101" fill="#110c09" stroke="none">
<path d="M0 465 l0 -465 785 0 785 0 0 465 0 465 -785 0 -785 0 0 -465z"/>
</g>
<g id="layer102" fill="#635f5d" stroke="none">
<path d="M0 465 l0 -465 785 0 785 0 0 465 0 465 -785 0 -785 0 0 -465z m200 298 c0 -45 -5 -40 -13 10 -3 22 -2 35 4 32 5 -4 9 -22 9 -42z m119 -58 c6 -22 10 -49 10 -60 0 -11 -9 12 -19 50 -11 39 -19 81 -19 95 1 20 3 18 9 -10 5 -19 13 -53 19 -75z m417 1 c-13 -47 -30 -93 -36 -103 -11 -16 -11 -16 -5 2 4 11 19 62 33 113 15 52 28 89 30 84 2 -6 -8 -49 -22 -96z m78 45 c-10 -28 -19 -49 -22 -47 -2 3 4 28 13 56 9 28 19 49 21 47 2 -2 -3 -27 -12 -56z m-531 -204 c23 -25 32 -29 59 -23 94 20 158 24 247 15 53 -5 107 -10 120 -12 20 -2 26 5 38 47 8 26 16 46 18 44 3 -2 -4 -36 -15 -74 -24 -83 -25 -107 -5 -124 8 -7 15 -26 15 -41 0 -23 6 -32 26 -39 21 -8 25 -15 19 -33 -4 -12 -8 -55 -10 -95 -2 -83 -3 -84 -85 -109 -40 -12 -92 -17 -190 -18 -131 0 -136 1 -175 28 -22 15 -61 60 -88 99 -39 61 -46 78 -41 103 10 49 32 82 74 116 22 18 40 39 40 47 0 7 -16 28 -36 45 -37 33 -77 109 -88 168 -4 19 6 1 22 -40 15 -41 40 -88 55 -104z m498 107 c-5 -16 -10 -21 -10 -12 -1 18 10 51 15 45 2 -1 -1 -16 -5 -33z m229 -94 c0 -5 -12 -10 -27 -10 l-27 0 27 -28 c15 -15 27 -38 27 -49 0 -26 -32 -39 -57 -24 -16 9 -14 10 10 11 42 0 46 28 9 59 -42 34 -41 51 3 51 19 0 35 -4 35 -10z m104 -6 c21 -20 21 -78 0 -98 -33 -33 -66 -9 -66 49 0 58 33 82 66 49z m110 0 c21 -20 21 -78 0 -98 -33 -33 -66 -9 -66 49 0 58 33 82 66 49z m110 0 c21 -20 21 -78 0 -98 -33 -33 -66 -9 -66 49 0 58 33 82 66 49z m-318 -218 c16 -12 17 -18 7 -34 -6 -11 -9 -30 -6 -42 7 -26 -10 -40 -49 -40 -28 0 -28 1 -28 65 0 65 0 65 28 65 16 0 37 -6 48 -14z m124 4 c0 -5 -16 -10 -35 -10 -28 0 -35 -4 -35 -20 0 -16 7 -20 35 -20 19 0 35 -4 35 -10 0 -5 -16 -10 -35 -10 -24 0 -35 -5 -35 -15 0 -10 11 -15 35 -15 19 0 35 -4 35 -10 0 -5 -18 -10 -40 -10 l-40 0 0 65 0 65 40 0 c22 0 40 -4 40 -10z m62 -70 c9 14 22 37 29 53 20 44 29 31 27 -40 l-1 -68 -6 55 -6 55 -28 -52 c-15 -29 -32 -53 -37 -53 -6 0 -9 29 -8 68 l1 67 6 -55 6 -55 17 25z m105 -17 c-2 -21 -4 -6 -4 32 0 39 2 55 4 38 2 -18 2 -50 0 -70z m114 81 c17 -20 1 -46 -32 -54 -13 -3 -25 -14 -27 -23 -3 -13 4 -17 30 -17 25 0 29 -3 18 -10 -21 -14 -36 -12 -54 5 -21 22 -10 43 28 53 42 11 41 36 -3 40 -25 3 -31 6 -20 13 21 13 45 11 60 -7z"/>
<path d="M368 460 c-51 -15 -98 -52 -118 -91 -29 -55 -25 -93 13 -144 17 -24 40 -55 49 -69 10 -13 37 -33 61 -45 45 -22 127 -29 127 -11 0 6 -8 10 -17 10 -10 0 -24 4 -32 9 -8 6 13 8 55 5 69 -3 69 -3 15 5 -29 5 -58 15 -65 21 -9 10 -6 11 14 5 55 -17 116 -17 129 -1 17 20 40 20 65 1 11 -9 41 -15 68 -15 54 0 50 -8 52 105 1 28 5 57 9 66 12 24 -102 37 -119 14 -15 -20 -23 -19 -50 6 -18 16 -40 23 -93 27 -60 4 -74 1 -106 -18 -22 -14 -34 -28 -31 -36 3 -8 1 -14 -4 -14 -6 0 -10 9 -10 20 0 20 63 60 95 60 8 0 20 11 25 24 12 32 47 56 85 57 29 1 29 1 5 9 -33 11 -187 11 -222 0z m217 -250 c0 -8 -10 -16 -22 -18 -22 -3 -32 16 -16 32 12 11 38 2 38 -14z m165 -3 c0 -19 -10 -27 -26 -20 -21 8 -17 33 6 33 11 0 20 -6 20 -13z"/>
<path d="M577 413 c-15 -2 -31 -13 -37 -23 -9 -16 -3 -19 58 -30 37 -7 76 -11 86 -9 18 4 18 6 -5 31 -25 29 -56 38 -102 31z"/>
<path d="M1064 536 c-12 -31 0 -71 23 -74 25 -4 38 26 29 64 -7 27 -43 34 -52 10z"/>
<path d="M1174 536 c-12 -31 0 -71 23 -74 25 -4 38 26 29 64 -7 27 -43 34 -52 10z"/>
<path d="M1284 536 c-12 -31 0 -71 23 -74 25 -4 38 26 29 64 -7 27 -43 34 -52 10z"/>
<path d="M950 310 c0 -16 7 -20 30 -20 23 0 30 4 30 20 0 16 -7 20 -30 20 -23 0 -30 -4 -30 -20z"/>
<path d="M950 255 c0 -10 10 -15 30 -15 20 0 30 5 30 15 0 10 -10 15 -30 15 -20 0 -30 -5 -30 -15z"/>
</g>
<g id="layer103" fill="#905537" stroke="none">
<path d="M0 465 l0 -465 785 0 785 0 0 465 0 465 -785 0 -785 0 0 -465z m200 302 c0 -49 51 -186 82 -219 24 -26 33 -29 61 -24 93 20 157 24 246 15 53 -5 107 -10 120 -12 20 -2 26 5 39 48 8 28 17 45 19 38 2 -6 -6 -44 -18 -84 -20 -67 -21 -74 -6 -103 9 -17 17 -42 19 -56 2 -15 10 -26 23 -29 29 -5 36 -22 19 -45 -10 -15 -12 -37 -8 -83 5 -42 3 -67 -5 -77 -25 -30 -113 -48 -250 -52 -180 -5 -205 7 -290 134 -37 54 -41 67 -35 100 6 34 42 102 54 102 3 0 18 10 33 23 26 21 28 25 16 50 -7 15 -17 27 -24 27 -6 0 -21 13 -32 28 -37 51 -102 275 -74 258 6 -4 11 -22 11 -39z m119 -62 c6 -22 10 -49 10 -60 0 -11 -9 12 -19 50 -11 39 -19 81 -19 95 1 20 3 18 9 -10 5 -19 13 -53 19 -75z m417 1 c-13 -47 -30 -93 -36 -103 -11 -16 -11 -16 -5 2 4 11 19 62 33 113 15 52 28 89 30 84 2 -6 -8 -49 -22 -96z m78 45 c-8 -29 -18 -51 -21 -48 -3 3 3 29 12 57 22 67 30 59 9 -9z m-27 -91 c-6 -16 -13 -27 -15 -25 -7 7 8 55 17 55 5 0 4 -13 -2 -30z m233 -100 c0 -5 -14 -10 -31 -10 l-31 0 31 -35 c42 -48 24 -84 -35 -69 -35 9 -30 25 6 18 46 -10 49 18 6 57 -20 17 -36 35 -36 40 0 5 20 9 45 9 25 0 45 -4 45 -10z m98 -2 c16 -16 16 -90 0 -106 -29 -29 -69 -4 -73 48 -5 53 41 90 73 58z m110 0 c16 -16 16 -90 0 -106 -29 -29 -69 -4 -73 48 -5 53 41 90 73 58z m110 0 c7 -7 12 -30 12 -53 0 -59 -39 -87 -70 -50 -43 52 12 149 58 103z m-327 -218 c19 -11 26 -40 12 -54 -4 -4 -7 -19 -8 -34 0 -24 -4 -27 -37 -30 l-38 -3 0 65 c0 64 1 66 26 66 14 0 34 -5 45 -10z m129 0 c0 -5 -13 -10 -30 -10 -23 0 -30 -4 -30 -20 0 -16 7 -20 30 -20 17 0 30 -4 30 -10 0 -5 -13 -10 -30 -10 -20 0 -30 -5 -30 -15 0 -10 10 -15 30 -15 17 0 30 -4 30 -10 0 -5 -18 -10 -40 -10 l-40 0 0 65 0 65 40 0 c22 0 40 -4 40 -10z m74 -42 c40 72 56 69 56 -13 0 -37 -4 -65 -10 -65 -5 0 -10 24 -10 53 l0 52 -30 -52 c-17 -29 -35 -53 -40 -53 -6 0 -9 29 -8 68 l1 67 6 -55 6 -55 29 53z m106 -13 c0 -37 -4 -65 -10 -65 -6 0 -10 28 -10 65 0 37 4 65 10 65 6 0 10 -28 10 -65z m100 50 c18 -22 3 -52 -30 -59 -19 -3 -30 -12 -30 -22 0 -13 7 -16 35 -11 43 7 47 -9 4 -18 -22 -5 -36 -3 -47 9 -21 20 -6 48 29 56 13 3 26 14 27 24 4 17 -1 18 -34 13 -36 -6 -37 -5 -20 8 25 19 50 19 66 0z"/>
<path d="M373 518 c-41 -9 -53 -20 -34 -32 5 -3 92 -7 195 -10 173 -3 186 -2 186 15 0 13 -13 20 -50 28 -61 13 -238 13 -297 -1z"/>
<path d="M368 460 c-51 -15 -98 -52 -118 -91 -29 -55 -25 -93 13 -144 17 -24 40 -55 49 -69 10 -13 37 -33 61 -45 45 -22 127 -29 127 -11 0 6 -8 10 -17 10 -10 0 -24 4 -32 9 -8 6 13 8 55 5 69 -3 69 -3 15 5 -29 5 -58 15 -65 21 -9 10 -6 11 14 5 55 -17 116 -17 129 -1 17 20 40 20 65 1 11 -8 41 -15 67 -15 45 0 47 1 52 35 3 19 3 50 0 69 -3 18 0 43 6 54 14 25 10 28 -57 36 -42 5 -54 3 -58 -9 -8 -19 -28 -19 -48 0 -40 41 -148 48 -203 14 -21 -13 -32 -27 -29 -35 3 -8 1 -14 -4 -14 -6 0 -10 9 -10 20 0 20 63 60 95 60 8 0 20 11 25 24 12 32 47 56 85 57 29 1 29 1 5 9 -33 11 -187 11 -222 0z m217 -250 c0 -8 -10 -16 -22 -18 -22 -3 -32 16 -16 32 12 11 38 2 38 -14z m165 -3 c0 -19 -10 -27 -26 -20 -21 8 -17 33 6 33 11 0 20 -6 20 -13z"/>
<path d="M677 440 c18 -10 41 -36 52 -57 12 -24 20 -31 21 -20 0 30 -30 77 -56 87 -42 16 -51 11 -17 -10z"/>
<path d="M570 430 c-17 -6 -9 -7 25 -3 28 3 52 7 54 9 8 7 -54 2 -79 -6z"/>
<path d="M575 411 c-16 -3 -31 -13 -33 -22 -2 -12 11 -19 54 -28 74 -14 94 -14 94 2 0 35 -61 60 -115 48z"/>
<path d="M689 405 c17 -34 31 -51 31 -39 0 7 -9 22 -21 35 -16 19 -18 20 -10 4z"/>
<path d="M595 130 c-24 -25 -26 -30 -12 -36 10 -3 29 -3 44 1 21 5 24 8 12 16 -9 7 2 8 35 3 35 -5 47 -4 42 5 -4 6 -15 11 -25 11 -9 0 -26 7 -37 15 -26 19 -26 19 -59 -15z"/>
<path d="M1064 536 c-3 -8 -4 -27 -2 -43 2 -20 9 -29 26 -31 22 -3 24 -1 24 43 0 14 0 30 -1 35 -2 15 -41 12 -47 -4z"/>
<path d="M1174 536 c-3 -8 -4 -27 -2 -43 2 -20 9 -29 26 -31 22 -3 24 -1 24 43 0 14 0 30 -1 35 -2 15 -41 12 -47 -4z"/>
<path d="M1284 536 c-3 -8 -4 -27 -2 -43 2 -20 9 -29 26 -31 22 -3 24 -1 24 43 0 14 0 30 -1 35 -2 15 -41 12 -47 -4z"/>
<path d="M960 255 c0 -9 9 -15 25 -15 16 0 25 6 25 15 0 9 -9 15 -25 15 -16 0 -25 -6 -25 -15z"/>
</g>
<g id="layer104" fill="#a59b0a" stroke="none">
<path d="M0 465 l0 -465 785 0 785 0 0 465 0 465 -785 0 -785 0 0 -465z m200 310 c0 -39 32 -142 62 -196 31 -55 47 -61 120 -44 95 22 240 18 330 -11 17 -5 25 15 73 181 21 71 36 105 45 105 3 0 -4 -33 -18 -72 -13 -40 -38 -120 -54 -178 -29 -98 -29 -106 -15 -135 9 -16 17 -41 19 -55 2 -15 10 -26 23 -29 28 -5 35 -20 20 -48 -8 -15 -11 -46 -8 -87 5 -59 4 -65 -18 -79 -44 -29 -132 -44 -259 -45 -156 -2 -180 9 -257 118 -50 69 -54 78 -48 115 7 49 37 94 82 125 18 12 33 26 33 31 0 5 -19 29 -43 54 -34 35 -49 63 -70 127 -33 104 -43 158 -28 158 6 0 11 -16 11 -35z m128 -129 c-4 -23 -38 114 -37 148 0 11 9 -12 20 -53 11 -41 19 -84 17 -95z m426 112 c-32 -112 -57 -182 -61 -171 -3 7 4 41 16 75 11 35 25 82 31 106 6 23 15 42 20 42 5 0 2 -24 -6 -52z m266 -198 c0 -5 -14 -10 -31 -10 l-31 0 31 -35 c17 -20 28 -41 25 -50 -7 -18 -38 -28 -64 -20 -31 10 -24 25 9 19 45 -9 48 13 7 55 -20 20 -36 40 -36 44 0 4 20 7 45 7 25 0 45 -4 45 -10z m98 -2 c16 -16 16 -90 0 -106 -29 -29 -78 5 -78 53 0 48 49 82 78 53z m110 0 c16 -16 16 -90 0 -106 -29 -29 -78 5 -78 53 0 48 49 82 78 53z m110 0 c7 -7 12 -30 12 -53 0 -44 -13 -65 -41 -65 -22 0 -49 37 -49 65 0 48 49 82 78 53z m-315 -229 c6 -9 7 -25 2 -35 -4 -11 -8 -30 -9 -44 -1 -21 -6 -25 -38 -28 l-38 -3 0 66 0 66 36 -3 c21 -2 42 -10 47 -19z m117 11 c0 -5 -13 -10 -30 -10 -23 0 -30 -4 -30 -20 0 -16 7 -20 30 -20 17 0 30 -4 30 -10 0 -5 -13 -10 -30 -10 -20 0 -30 -5 -30 -15 0 -10 10 -15 30 -15 17 0 30 -4 30 -10 0 -5 -18 -10 -40 -10 l-40 0 0 65 0 65 40 0 c22 0 40 -4 40 -10z m74 -42 c40 72 56 69 56 -13 0 -37 -4 -65 -10 -65 -5 0 -10 24 -10 53 l0 52 -30 -52 c-17 -29 -35 -53 -40 -53 -6 0 -9 29 -8 68 l1 67 6 -55 6 -55 29 53z m106 -13 c0 -37 -4 -65 -10 -65 -6 0 -10 28 -10 65 0 37 4 65 10 65 6 0 10 -28 10 -65z m98 56 c8 -4 12 -19 10 -32 -2 -16 -12 -25 -36 -31 -41 -11 -37 -34 7 -32 33 2 42 -10 15 -20 -27 -10 -51 -7 -65 10 -17 20 -1 46 32 54 13 3 26 14 27 24 4 17 -1 18 -32 13 -20 -3 -36 -2 -36 3 0 18 55 26 78 11z"/>
</g>
<g id="layer105" fill="#9d9b98" stroke="none">
<path d="M0 465 l0 -465 785 0 785 0 0 465 0 465 -785 0 -785 0 0 -465z m204 298 c10 -75 48 -173 81 -209 l31 -32 64 15 c64 15 236 13 316 -3 l32 -6 43 138 c24 75 49 139 55 141 6 2 0 -29 -14 -69 -13 -40 -38 -120 -54 -178 -29 -98 -29 -106 -15 -135 9 -16 17 -41 19 -55 2 -15 10 -26 23 -29 28 -5 35 -20 20 -48 -8 -15 -11 -46 -8 -87 5 -59 4 -65 -18 -79 -44 -29 -132 -44 -259 -45 -156 -2 -180 9 -257 118 -50 69 -54 78 -48 115 7 49 37 94 82 125 18 12 33 26 33 31 0 5 -19 29 -43 54 -34 35 -49 63 -70 127 -32 100 -43 158 -29 158 5 0 12 -21 16 -47z m110 -25 c10 -40 20 -81 23 -90 2 -10 0 -18 -5 -18 -5 0 -16 28 -25 63 -25 98 -28 117 -19 117 4 0 16 -33 26 -72z m452 55 c-45 -160 -86 -265 -72 -185 11 63 57 202 67 202 6 0 8 -8 5 -17z m254 -233 c0 -5 -14 -10 -31 -10 l-31 0 31 -35 c17 -20 28 -41 25 -50 -7 -18 -38 -28 -64 -20 -31 10 -24 25 9 19 45 -9 48 13 7 55 -20 20 -36 40 -36 44 0 4 20 7 45 7 25 0 45 -4 45 -10z m98 -2 c16 -16 16 -90 0 -106 -29 -29 -78 5 -78 53 0 48 49 82 78 53z m110 0 c16 -16 16 -90 0 -106 -29 -29 -78 5 -78 53 0 48 49 82 78 53z m110 0 c7 -7 12 -30 12 -53 0 -44 -13 -65 -41 -65 -22 0 -49 37 -49 65 0 48 49 82 78 53z m-315 -229 c6 -9 7 -25 2 -35 -4 -11 -8 -30 -9 -44 -1 -21 -6 -25 -38 -28 l-38 -3 0 66 0 66 36 -3 c21 -2 42 -10 47 -19z m117 11 c0 -5 -13 -10 -30 -10 -23 0 -30 -4 -30 -20 0 -16 7 -20 30 -20 17 0 30 -4 30 -10 0 -5 -13 -10 -30 -10 -20 0 -30 -5 -30 -15 0 -10 10 -15 30 -15 17 0 30 -4 30 -10 0 -5 -18 -10 -40 -10 l-40 0 0 65 0 65 40 0 c22 0 40 -4 40 -10z m74 -42 c40 72 56 69 56 -13 0 -37 -4 -65 -10 -65 -5 0 -10 24 -10 53 l0 52 -30 -52 c-17 -29 -35 -53 -40 -53 -6 0 -9 29 -8 68 l1 67 6 -55 6 -55 29 53z m106 -13 c0 -37 -4 -65 -10 -65 -6 0 -10 28 -10 65 0 37 4 65 10 65 6 0 10 -28 10 -65z m98 56 c8 -4 12 -19 10 -32 -2 -16 -12 -25 -36 -31 -41 -11 -37 -34 7 -32 33 2 42 -10 15 -20 -27 -10 -51 -7 -65 10 -17 20 -1 46 32 54 13 3 26 14 27 24 4 17 -1 18 -32 13 -20 -3 -36 -2 -36 3 0 18 55 26 78 11z"/>
<path d="M562 399 c-33 -13 -20 -26 39 -38 90 -20 109 -11 69 29 -21 21 -68 25 -108 9z"/>
<path d="M428 340 c-41 -22 -45 -29 -26 -48 14 -14 112 -15 176 -3 50 10 54 13 46 34 -8 21 -27 27 -99 33 -48 4 -68 0 -97 -16z"/>
<path d="M672 318 c5 -15 80 -33 102 -25 9 4 16 13 16 22 0 12 -13 15 -61 15 -44 0 -60 -3 -57 -12z"/>
<path d="M1064 537 c-3 -9 -4 -28 -2 -44 2 -20 8 -28 23 -28 17 0 20 7 20 40 0 30 -4 41 -18 43 -9 2 -20 -3 -23 -11z"/>
<path d="M1174 537 c-3 -9 -4 -28 -2 -44 2 -20 8 -28 23 -28 17 0 20 7 20 40 0 30 -4 41 -18 43 -9 2 -20 -3 -23 -11z"/>
<path d="M1284 537 c-3 -9 -4 -28 -2 -44 2 -20 8 -28 23 -28 17 0 20 7 20 40 0 30 -4 41 -18 43 -9 2 -20 -3 -23 -11z"/>
<path d="M960 255 c0 -11 7 -15 23 -13 12 2 22 8 22 13 0 6 -10 11 -22 13 -16 2 -23 -2 -23 -13z"/>
</g>
<g id="layer106" fill="#fdfa0f" stroke="none">
<path d="M0 465 l0 -465 785 0 785 0 0 465 0 465 -785 0 -785 0 0 -465z m204 298 c10 -75 48 -173 81 -209 l31 -32 64 15 c64 15 236 13 317 -3 l31 -6 42 134 c23 73 46 137 51 142 17 19 19 -2 3 -40 -15 -35 -40 -118 -80 -262 -13 -47 -13 -55 1 -74 8 -13 15 -33 15 -45 0 -15 10 -28 31 -38 23 -12 29 -20 23 -33 -5 -9 -10 -52 -12 -95 -3 -74 -5 -79 -33 -96 -42 -26 -164 -54 -192 -45 -12 4 -59 6 -103 5 -73 -2 -86 0 -123 23 -43 27 -128 134 -138 174 -10 42 16 104 63 147 24 23 44 48 44 56 0 8 -13 25 -29 37 -35 26 -75 107 -96 194 -17 72 -19 98 -6 98 4 0 11 -21 15 -47z m110 -25 c10 -40 20 -81 23 -90 2 -10 0 -18 -5 -18 -5 0 -16 28 -25 63 -25 98 -28 117 -19 117 4 0 16 -33 26 -72z m452 55 c-45 -160 -86 -265 -72 -185 11 63 57 202 67 202 6 0 8 -8 5 -17z m254 -233 c0 -5 -14 -10 -32 -10 l-32 0 34 -35 c28 -29 32 -39 24 -53 -13 -20 -75 -23 -82 -4 -3 9 3 11 22 6 41 -10 45 21 7 60 -17 17 -31 35 -31 39 0 4 20 7 45 7 25 0 45 -4 45 -10z m98 -2 c16 -16 16 -90 0 -106 -33 -33 -78 -2 -78 53 0 55 45 86 78 53z m110 0 c16 -16 16 -90 0 -106 -33 -33 -78 -2 -78 53 0 55 45 86 78 53z m110 0 c7 -7 12 -30 12 -53 0 -46 -13 -65 -47 -65 -25 0 -43 26 -43 65 0 55 45 86 78 53z m-312 -263 c2 -61 -8 -75 -52 -75 l-34 0 0 66 0 65 43 -3 42 -3 1 -50z m114 45 c0 -5 -13 -10 -30 -10 -23 0 -30 -4 -30 -20 0 -16 7 -20 30 -20 17 0 30 -4 30 -10 0 -5 -13 -10 -30 -10 -20 0 -30 -5 -30 -15 0 -10 10 -15 30 -15 17 0 30 -4 30 -10 0 -5 -18 -10 -40 -10 l-40 0 0 65 0 65 40 0 c22 0 40 -4 40 -10z m52 -32 l3 -43 23 43 c34 64 52 56 52 -23 0 -37 -4 -65 -10 -65 -5 0 -10 24 -11 53 l0 52 -27 -52 c-36 -73 -52 -69 -52 12 0 72 17 90 22 23z m128 -23 c0 -37 -4 -65 -10 -65 -6 0 -10 28 -10 65 0 37 4 65 10 65 6 0 10 -28 10 -65z m109 47 c13 -25 -3 -49 -40 -57 -39 -9 -32 -30 10 -28 41 1 36 -21 -6 -25 -59 -6 -70 50 -13 70 39 13 33 33 -9 32 -17 -1 -31 1 -31 5 0 27 75 30 89 3z"/>
<path d="M465 353 c-34 -7 -67 -37 -60 -55 6 -14 19 -16 83 -12 145 9 167 18 120 48 -24 15 -110 27 -143 19z"/>
<path d="M670 321 c0 -12 74 -34 98 -29 9 2 17 10 17 18 0 11 -15 16 -57 18 -35 2 -58 -1 -58 -7z"/>
</g>
<g id="layer107" fill="#eda8a8" stroke="none">
<path d="M0 465 l0 -465 785 0 785 0 0 465 0 465 -785 0 -785 0 0 -465z m840 341 c0 -2 -7 -21 -16 -42 -15 -35 -40 -118 -80 -262 -13 -47 -13 -55 1 -74 8 -13 15 -33 15 -45 0 -15 10 -28 31 -38 23 -12 29 -20 23 -33 -5 -9 -10 -52 -12 -95 -3 -74 -5 -79 -33 -96 -42 -26 -164 -54 -192 -45 -12 4 -59 6 -103 5 -73 -2 -86 0 -123 23 -43 27 -128 134 -138 174 -10 42 16 104 63 147 24 23 44 48 44 56 0 8 -13 25 -29 37 -35 26 -75 107 -96 194 -26 109 -61 98 315 98 182 0 330 -2 330 -4z m180 -246 c0 -5 -14 -10 -32 -10 l-32 0 34 -35 c28 -29 32 -39 24 -53 -13 -20 -75 -23 -82 -4 -3 9 3 11 22 6 41 -10 45 21 7 60 -17 17 -31 35 -31 39 0 4 20 7 45 7 25 0 45 -4 45 -10z m98 -2 c16 -16 16 -90 0 -106 -33 -33 -78 -2 -78 53 0 55 45 86 78 53z m110 0 c16 -16 16 -90 0 -106 -33 -33 -78 -2 -78 53 0 55 45 86 78 53z m110 0 c7 -7 12 -30 12 -53 0 -46 -13 -65 -47 -65 -25 0 -43 26 -43 65 0 55 45 86 78 53z m-312 -263 c2 -61 -8 -75 -52 -75 l-34 0 0 66 0 65 43 -3 42 -3 1 -50z m114 45 c0 -5 -13 -10 -30 -10 -23 0 -30 -4 -30 -20 0 -16 7 -20 30 -20 17 0 30 -4 30 -10 0 -5 -13 -10 -30 -10 -20 0 -30 -5 -30 -15 0 -10 10 -15 30 -15 17 0 30 -4 30 -10 0 -5 -18 -10 -40 -10 l-40 0 0 65 0 65 40 0 c22 0 40 -4 40 -10z m52 -32 l3 -43 23 43 c34 64 52 56 52 -23 0 -37 -4 -65 -10 -65 -5 0 -10 24 -11 53 l0 52 -27 -52 c-36 -73 -52 -69 -52 12 0 72 17 90 22 23z m128 -23 c0 -37 -4 -65 -10 -65 -6 0 -10 28 -10 65 0 37 4 65 10 65 6 0 10 -28 10 -65z m109 47 c13 -25 -3 -49 -40 -57 -39 -9 -32 -30 10 -28 41 1 36 -21 -6 -25 -59 -6 -70 50 -13 70 39 13 33 33 -9 32 -17 -1 -31 1 -31 5 0 27 75 30 89 3z"/>
<path d="M562 399 c-34 -13 -20 -25 48 -38 73 -15 90 -8 59 25 -24 25 -65 31 -107 13z"/>
</g>
<g id="layer108" fill="#ffffff" stroke="none">
<path d="M0 465 l0 -465 785 0 785 0 0 465 0 465 -785 0 -785 0 0 -465z m840 341 c0 -2 -7 -20 -15 -39 -14 -34 -52 -157 -81 -263 -13 -46 -12 -53 6 -89 11 -22 20 -44 20 -51 0 -6 12 -16 26 -23 20 -9 24 -16 18 -29 -5 -9 -10 -52 -12 -95 -3 -74 -5 -79 -33 -96 -42 -26 -164 -54 -192 -45 -12 4 -60 6 -107 5 -78 -2 -88 0 -126 26 -53 36 -134 153 -134 193 0 43 34 104 75 137 43 34 44 53 6 81 -35 26 -75 107 -96 194 -26 109 -61 98 315 98 182 0 330 -2 330 -4z m180 -246 c0 -5 -14 -10 -32 -10 l-32 0 34 -35 c28 -29 32 -39 24 -53 -14 -21 -75 -23 -82 -3 -3 10 2 12 22 7 41 -10 45 19 7 58 -17 17 -31 35 -31 39 0 4 20 7 45 7 25 0 45 -4 45 -10z m98 -2 c16 -16 16 -90 0 -106 -33 -33 -78 -2 -78 53 0 55 45 86 78 53z m110 0 c16 -16 16 -90 0 -106 -33 -33 -78 -2 -78 53 0 55 45 86 78 53z m110 0 c7 -7 12 -30 12 -53 0 -46 -13 -65 -47 -65 -25 0 -43 26 -43 65 0 55 45 86 78 53z m-312 -263 c2 -61 -8 -75 -52 -75 l-34 0 0 66 0 65 43 -3 42 -3 1 -50z m114 45 c0 -5 -13 -10 -30 -10 -23 0 -30 -4 -30 -20 0 -16 7 -20 30 -20 17 0 30 -4 30 -10 0 -5 -13 -10 -30 -10 -20 0 -30 -5 -30 -15 0 -10 10 -15 30 -15 17 0 30 -4 30 -10 0 -5 -18 -10 -40 -10 l-40 0 0 65 0 65 40 0 c22 0 40 -4 40 -10z m52 -32 l3 -43 23 43 c34 64 52 56 52 -23 0 -75 -17 -89 -22 -17 l-3 47 -25 -47 c-34 -68 -50 -63 -50 17 0 72 17 90 22 23z m128 -23 c0 -37 -4 -65 -10 -65 -6 0 -10 28 -10 65 0 37 4 65 10 65 6 0 10 -28 10 -65z m111 49 c18 -22 1 -46 -40 -58 -40 -11 -34 -32 8 -29 41 1 36 -21 -6 -25 -59 -6 -70 50 -13 70 39 13 33 33 -9 32 -30 -2 -39 5 -24 19 13 13 71 7 84 -9z"/>
<path d="M1072 538 c-17 -17 -15 -53 3 -68 22 -19 37 0 33 40 -3 37 -17 47 -36 28z"/>
<path d="M1182 538 c-17 -17 -15 -53 3 -68 22 -19 37 0 33 40 -3 37 -17 47 -36 28z"/>
<path d="M1292 538 c-17 -17 -15 -53 3 -68 22 -19 37 0 33 40 -3 37 -17 47 -36 28z"/>
<path d="M960 310 c0 -16 5 -21 23 -18 12 2 22 10 22 18 0 8 -10 16 -22 18 -18 3 -23 -2 -23 -18z"/>
<path d="M960 255 c0 -8 9 -15 20 -15 11 0 20 7 20 15 0 8 -9 15 -20 15 -11 0 -20 -7 -20 -15z"/>
</g>


</svg>